<?xml version="1.0" encoding="utf-8"?>
<!-- Generator: Adobe Illustrator 19.2.1, SVG Export Plug-In . SVG Version: 6.00 Build 0)  -->
<svg version="1.1" id="Layer_1" xmlns="http://www.w3.org/2000/svg" xmlns:xlink="http://www.w3.org/1999/xlink" x="0px" y="0px"
	 viewBox="0 0 1024 1024" style="enable-background:new 0 0 1024 1024;" xml:space="preserve">
<style type="text/css">
	.st0{fill:#16B4B9;}
</style>
<g>
	<path class="st0" d="M517.7,410.7c104.8-83.7,195.6-156.2,231.1-245.6L680.5,55.3c-4.3,103.2-64.4,168.8-150.8,263.1
		C480.5,372.1,424.9,432.9,364.1,516c-0.4,1.6-1.1,3.2-2,4.7L326.5,578C387,515.2,454.6,461.1,517.7,410.7z"/>
	<path class="st0" d="M328.5,343.4c-29.1-38.6-76.5-56.9-104.9-63l123,197.9C361.3,424.3,355.3,379,328.5,343.4z"/>
	<path class="st0" d="M632.1,542.1c-32.6,23.5-72.5,46.4-113.5,69.9c-113.7,65.2-242.7,139.2-242.7,244.7H274L339.4,962
		c7.3-105.2,113.8-220.4,201.8-315.5C576,608.9,609.3,572.9,632.1,542.1z"/>
	<path class="st0" d="M351,328.8c16.1,21.3,25.9,45.3,29.5,71.8c7.4-81.5-20.1-167.5-48.5-216.8c-16-27.7-30.1-41.3-39.7-45.9
		l-72,115.8C254.3,258.9,314.3,280,351,328.8z"/>
	<path class="st0" d="M508.9,301.9C602.8,199.4,660,136.8,652.7,24.4H529.9c13.6,44.5,2.5,182.3-68.1,329.4
		C478.4,335.2,494.2,317.9,508.9,301.9z"/>
	<path class="st0" d="M440.9,358.9c33.7-67.8,51.9-128.7,61.2-167.8c22.2-93.6,17.2-152.3,10.6-166.6H376.9c1.2,1.9,2.4,4,3.7,6.1
		C412.1,82.9,483.4,201.2,440.9,358.9z"/>
	<path class="st0" d="M346.4,176.6c29.7,51.5,58.3,141.6,50,227.3c72.7-174.2-6.7-305.9-39.9-360.9c-0.9-1.5-1.8-2.9-2.6-4.3
		l-53.5,86.1C319.7,134.4,336.8,160,346.4,176.6z"/>
	<path class="st0" d="M537.3,689.9c-90.6,98.7-188.7,214.7-168,309.7h134.9c-0.7-2.2-1.6-4.7-2.4-7
		C488.1,954.1,453.5,856.1,537.3,689.9z"/>
	<path class="st0" d="M713.6,864.8C671.2,833.2,591.8,773.9,619,626c-9.7,23.2-18.4,49.7-23.6,79.1c-17.2,96,7.5,191.1,73.1,282.9
		l65.4-105.1l0,0c0.1-0.2,0.2-0.3,0.2-0.3l0,0C733.5,879.7,722.5,871.4,713.6,864.8z"/>
	<path class="st0" d="M217.9,763.9c-0.2,0.4-0.6,0.8-0.9,1.1l44,70.7c15.1-102.6,138.9-173.6,249-236.7
		c69.7-40,135.9-78,166.3-118.8l56.3-90.5c-56.7,45.6-128.5,86.3-202.6,128.3C404.7,588.9,275.3,662.2,217.9,763.9z"/>
	<path class="st0" d="M528.5,422.3C449.8,485.1,364,553.7,294.6,637.7c64-52.5,143.3-97.4,221-141.4
		C644.7,423.2,766.8,354.1,807,258.7L759.3,182C719.1,270.2,626.3,344.2,528.5,422.3z"/>
	<path class="st0" d="M568.3,700.9c4-22.6,10.1-43.7,17-63c-0.2,0.2-0.4,0.4-0.6,0.7c-121.4,196.3-81.9,308.2-67.4,349.3
		c1.7,4.7,3,8.5,3.9,11.8h122.7C575.6,903.1,550.1,802.7,568.3,700.9z"/>
	<path class="st0" d="M676.8,671.6c21.3,36.9,63.3,61.6,124.8,73.6L671.9,536.7C661.9,566.7,649.3,624,676.8,671.6z"/>
	<path class="st0" d="M635.4,635.9c-0.2-1.3-0.3-2.5-0.5-3.8c-23.3,136.7,49.8,191.5,89,220.8c7.2,5.4,14,10.5,19,15.5l60.3-96.9
		C733.1,759,651.3,725.1,635.4,635.9z"/>
</g>
</svg>
